Coordinates
version=1
nRows=7
nColumns=40
inDegrees=yes

Units are S.I. units (second, meters, Newtons, ...)
Angles are in degrees.

endheader
time	pelvis_tilt	pelvis_list	pelvis_rotation	pelvis_tx	pelvis_ty	pelvis_tz	hip_flexion_r	hip_adduction_r	hip_rotation_r	knee_angle_r	knee_angle_r_beta	ankle_angle_r	subtalar_angle_r	mtp_angle_r	hip_flexion_l	hip_adduction_l	hip_rotation_l	knee_angle_l	knee_angle_l_beta	ankle_angle_l	subtalar_angle_l	mtp_angle_l	lumbar_extension	lumbar_bending	lumbar_rotation	arm_flex_r	arm_add_r	arm_rot_r	elbow_flex_r	pro_sup_r	wrist_flex_r	wrist_dev_r	arm_flex_l	arm_add_l	arm_rot_l	elbow_flex_l	pro_sup_l	wrist_flex_l	wrist_dev_l
     21.13000000	     -4.28228197	     -3.07918125	     -3.35923817	      1.10664269	      0.93384864	      0.41680829	     34.55602708	     -8.05389113	     -4.09394090	     72.87014060	     72.87014060	     -2.41578485	    -18.83748557	      8.54071033	     14.95680559	     -2.86522371	     -8.08343809	     20.38283293	     20.38283293	     11.71559608	    -13.37527800	      1.07616067	    -10.40029846	      5.73248781	      1.49324099	     11.46371384	    -12.42937239	     -4.98352877	     60.27104222	     45.40954662	      0.00000000	      0.00000000	      8.78874613	    -12.06241831	     -4.49692412	     49.17456767	     45.63657318	      0.00000000	      0.00000000
     21.14121429	     -4.20212053	     -3.14586864	     -3.65659569	      1.10528586	      0.93440661	      0.41671707	     35.63367636	     -7.79407284	     -4.23279844	     71.48025962	     71.48025962	     -2.24838586	    -18.69046270	      7.77637245	     13.95389763	     -2.91535311	     -8.46220530	     19.82609258	     19.82609258	     11.96080199	    -13.08006409	      0.62030952	    -10.58013127	      5.87590287	      1.59258875	     10.35946673	    -12.37912733	     -4.96507666	     55.17886051	     45.58194153	      0.00000000	      0.00000000	     10.39055132	    -12.70044879	     -4.50213748	     51.07563706	     45.74499968	      0.00000000	      0.00000000
     21.15242857	     -4.08441118	     -3.24104495	     -3.94448174	      1.10398178	      0.93498227	      0.41666169	     36.49989207	     -7.49089492	     -4.41107856	     69.83378731	     69.83378731	     -2.23622977	    -18.51217851	      6.82832918	     12.87739600	     -3.00137174	     -8.93471556	     19.20012729	     19.20012729	     12.19778374	    -12.59287403	      0.07256100	    -10.84101195	      6.04294613	      1.53109954	      9.61122074	    -12.28194148	     -4.77063812	     49.71741532	     45.75828902	      0.00000000	      0.00000000	     11.73721033	    -13.40907937	     -4.75023672	     53.42716633	     45.89396556	      0.00000000	      0.00000000
     21.16364286	     -3.98242610	     -3.34354718	     -4.20688467	      1.10264643	      0.93544400	      0.41660253	     37.23342927	     -7.16798519	     -4.60745749	     67.93209504	     67.93209504	     -2.27510800	    -18.23656723	      6.05454604	     11.86541270	     -3.08884300	     -9.39682610	     18.64046137	     18.64046137	     12.45214527	    -12.08858534	     -0.42566169	    -11.10478643	      6.22856476	      1.53730983	      8.91539393	    -12.22332231	     -4.65112246	     44.31362987	     45.93549491	      0.00000000	      0.00000000	     13.18450966	    -14.03165275	     -5.07601195	     55.51954783	     46.04014761	      0.00000000	      0.00000000
     21.17485714	     -3.88941020	     -3.41060505	     -4.43893077	      1.10133178	      0.93577265	      0.41653181	     37.84904915	     -6.88241986	     -4.80697218	     65.78865062	     65.78865062	     -2.16921123	    -17.78175054	      5.87195650	     10.85917557	     -3.10202599	     -9.75958265	     18.04443699	     18.04443699	     12.74704644	    -11.70599051	     -0.59280794	    -11.42437181	      6.38629503	      2.01625635	      7.13853443	    -12.54157287	     -4.55198539	     41.49161337	     46.02218624	      0.00000000	      0.00000000	     15.04281426	    -14.30557424	     -5.40162711	     57.25501563	     46.12641589	      0.00000000	      0.00000000
     21.18607143	     -3.85822535	     -3.51485441	     -4.62865166	      1.10003294	      0.93589151	      0.41651057	     38.29248854	     -6.56025185	     -5.05284972	     63.21041834	     63.21041834	     -2.47357122	    -17.27903945	      4.42215139	      9.96907237	     -3.19021958	    -10.19469662	     17.52809466	     17.52809466	     12.97057796	    -11.12132592	     -1.32501913	    -11.55915849	      6.59801349	      1.52654146	      7.44178246	    -12.13657109	     -4.95332121	     34.64642921	     46.29472297	      0.00000000	      0.00000000	     16.03163944	    -15.26647308	     -5.58025602	     59.55159317	     46.25955332	      0.00000000	      0.00000000
     21.19728571	     -3.85042668	     -3.56935029	     -4.78925595	      1.09880911	      0.93586721	      0.41644900	     38.59179265	     -6.31322546	     -5.32320195	     60.28878237	     60.28878237	     -2.68111109	    -16.51922961	      3.23626492	      9.09445968	     -3.18008014	    -10.48716962	     16.97658163	     16.97658163	     13.22110284	    -10.73467691	     -1.73453540	    -11.74324806	      6.77114987	      1.42110490	      6.54317335	    -12.08292770	     -5.66074822	     30.74799123	     46.47043224	      0.00000000	      0.00000000	     17.21417263	    -15.79239138	     -6.22705993	     61.84315984	     46.43564557	      0.00000000	      0.00000000
